<!-- icon666.com - MILLIONS vector ICONS FREE --><svg id="Layer_1" viewBox="0 0 512 512" xmlns="http://www.w3.org/2000/svg" xmlns:xlink="http://www.w3.org/1999/xlink" data-name="Layer 1"><linearGradient id="linear-gradient" gradientUnits="userSpaceOnUse" x1="256" x2="256" y1="436.384" y2="101.73"><stop offset=".322" stop-color="#a163f5"></stop><stop offset=".466" stop-color="#b074ee"></stop><stop offset=".752" stop-color="#d8a1dd"></stop><stop offset=".898" stop-color="#efbad3"></stop></linearGradient><linearGradient id="linear-gradient-2" x1="85.032" x2="85.032" xlink:href="#linear-gradient" y1="436.384" y2="101.729"></linearGradient><linearGradient id="linear-gradient-3" x1="123.955" x2="123.955" xlink:href="#linear-gradient" y1="436.384" y2="101.73"></linearGradient><path d="m388.617 53.324a26.329 26.329 0 0 0 -22.719-13.1h-219.798a26.328 26.328 0 0 0 -22.719 13.1l-109.849 189.752a26.317 26.317 0 0 0 0 26.3l109.851 189.757a26.328 26.328 0 0 0 22.719 13.1h219.798a26.329 26.329 0 0 0 22.719-13.1l109.849-189.753a26.317 26.317 0 0 0 0-26.3zm99.465 210.045-109.851 189.752a14.293 14.293 0 0 1 -12.333 7.111h-219.798a14.3 14.3 0 0 1 -12.334-7.111l-109.848-189.752a14.289 14.289 0 0 1 0-14.281l109.851-189.753a14.292 14.292 0 0 1 12.333-7.11h219.798a14.3 14.3 0 0 1 12.334 7.11l109.85 189.753a14.286 14.286 0 0 1 -.002 14.281z" fill="url(#linear-gradient)"></path><path d="m111.209 144.825a6 6 0 0 0 -8.2 2.187l-46.34 80.048a6 6 0 1 0 10.385 6.011l46.346-80.048a6 6 0 0 0 -2.191-8.198z" fill="url(#linear-gradient-2)"></path><path d="m132.914 107.333a6 6 0 0 0 -8.2 2.186l-11.9 20.564a6 6 0 1 0 10.386 6.017l11.9-20.569a6 6 0 0 0 -2.186-8.198z" fill="url(#linear-gradient-3)"></path></svg>