<?xml version="1.0" standalone="no"?>
<!DOCTYPE svg PUBLIC "-//W3C//DTD SVG 20010904//EN"
 "http://www.w3.org/TR/2001/REC-SVG-20010904/DTD/svg10.dtd">
<svg version="1.0" xmlns="http://www.w3.org/2000/svg"
 width="438.000000pt" height="324.000000pt" viewBox="0 0 438.000000 324.000000"
 preserveAspectRatio="xMidYMid meet">

<g transform="translate(0.000000,324.000000) scale(0.100000,-0.100000)"
fill="#000000" stroke="none">
<path d="M1250 2542 c0 -5 6 -16 13 -26 12 -16 18 -17 58 -5 l44 12 -50 13
c-59 16 -65 17 -65 6z"/>
<path d="M16 2504 c-10 -27 -7 -64 10 -97 22 -43 30 -47 96 -47 47 0 59 4 68
20 18 35 27 14 35 -81 3 -50 14 -115 24 -145 l16 -53 44 20 c24 10 52 19 62
19 22 0 24 10 7 29 -11 11 -7 13 18 8 25 -5 46 2 95 29 l64 35 -82 -6 c-44 -4
-89 -8 -99 -8 -14 -2 -24 14 -41 60 -20 57 -21 66 -8 96 18 44 17 44 405 57
173 6 340 16 370 22 l55 12 -50 8 c-119 19 -700 -16 -862 -52 -42 -10 -47 -9
-61 11 -13 18 -129 79 -152 79 -4 0 -11 -7 -14 -16z m281 -111 c-3 -3 -11 -2
-17 2 -9 6 -9 10 1 16 14 8 27 -7 16 -18z m-14 -51 c20 -18 51 -113 40 -123
-5 -3 -20 -9 -35 -13 -31 -7 -34 -2 -44 98 -7 73 -5 75 39 38z"/>
<path d="M1936 2459 c-44 -5 -105 -14 -135 -21 -31 -7 -60 -12 -66 -13 -5 0
-18 -7 -28 -17 -22 -19 -21 -21 58 -143 29 -44 80 -125 114 -180 l62 -100 52
-6 c114 -14 381 -38 384 -35 10 9 -67 26 -121 27 -34 0 -79 4 -101 8 -35 8
-29 9 45 11 47 1 101 3 120 5 19 1 96 6 170 10 74 3 182 11 240 16 58 5 155
14 215 19 61 6 129 13 153 16 l43 6 -28 15 c-19 10 -46 13 -85 10 -34 -3 -58
-1 -58 5 0 9 -28 35 -89 83 -14 11 -22 14 -17 7 11 -17 -4 -15 -28 5 -12 10
-1 -4 24 -31 47 -51 34 -51 -40 1 -28 20 -26 17 10 -16 l45 -42 -35 6 c-19 2
-62 7 -95 10 -81 7 -214 22 -360 40 -66 8 -123 15 -127 15 -4 0 -24 30 -44 68
-21 37 -49 85 -64 107 -15 22 -30 46 -34 53 -5 9 12 12 73 12 84 0 113 -17 39
-22 -38 -3 -43 -6 -43 -28 0 -22 5 -25 40 -28 45 -4 114 15 117 32 0 6 1 26 2
44 1 29 -3 34 -27 39 -21 4 -25 8 -15 14 17 11 -260 9 -366 -2z m-109 -154
c-9 -29 -12 -33 -20 -20 -6 11 -3 22 9 36 23 26 24 25 11 -16z"/>
<path d="M1200 2434 c-212 -39 -490 -161 -490 -215 0 -19 37 -40 113 -64 89
-29 383 -89 486 -101 52 -6 68 -12 89 -35 22 -25 33 -29 79 -29 54 0 68 -11
35 -29 -10 -5 -27 -26 -37 -45 -15 -28 -17 -38 -7 -48 9 -9 23 -7 64 11 29 13
72 27 96 32 49 10 102 38 102 54 0 6 -5 16 -12 23 -10 10 -6 11 17 8 91 -15
115 -16 115 -5 0 15 -154 268 -206 339 -27 37 -58 65 -94 84 -49 27 -65 30
-160 33 -65 1 -138 -4 -190 -13z m-23 -48 c-4 -10 -1 -13 9 -9 10 4 12 0 8
-11 -5 -12 -2 -15 12 -10 11 3 3 -4 -16 -14 -19 -11 -38 -18 -42 -16 -9 6 13
74 25 74 5 0 7 -7 4 -14z m192 -20 l23 -24 -21 -21 c-25 -25 -86 -28 -111 -6
-16 14 -18 12 -24 -26 -6 -39 -8 -41 -22 -23 -14 19 -14 19 -12 0 2 -10 -3
-21 -9 -23 -7 -3 -13 3 -13 13 0 16 -1 16 -15 -2 -8 -10 -15 -14 -15 -9 -1 6
-5 1 -10 -10 -7 -15 -9 -10 -9 23 -1 26 4 44 12 46 6 2 33 10 58 19 28 9 50
12 56 6 5 -5 16 6 27 26 23 42 52 46 85 11z m136 14 c16 -7 13 -9 -17 -9 -21
-1 -38 4 -38 9 0 12 27 12 55 0z m-437 -47 c-2 -24 -8 -29 -36 -31 -31 -3 -33
-2 -22 17 13 25 8 26 -30 6 -25 -13 -30 -13 -30 -2 0 16 49 34 93 36 25 1 28
-2 25 -26z m312 -94 c-5 -18 -7 -35 -5 -40 3 -4 1 -10 -5 -14 -6 -4 -10 9 -10
34 0 22 5 42 13 44 6 3 13 6 14 6 1 1 -2 -13 -7 -30z m-165 -116 c16 -39 16
-46 -2 -35 -11 7 -29 72 -19 72 3 0 13 -16 21 -37z m397 4 c34 -20 88 -81 88
-98 0 -4 -15 -3 -32 2 -18 5 -80 9 -138 9 -145 -1 -140 -2 -140 18 0 40 87 91
155 92 17 0 47 -10 67 -23z m-257 -47 c3 -5 1 -10 -4 -10 -6 0 -11 5 -11 10 0
6 2 10 4 10 3 0 8 -4 11 -10z"/>
<path d="M1030 2340 c0 -5 4 -10 9 -10 6 0 13 5 16 10 3 6 -1 10 -9 10 -9 0
-16 -4 -16 -10z"/>
<path d="M2540 2357 c0 -2 15 -14 33 -27 20 -15 27 -17 18 -6 -13 16 -51 41
-51 33z"/>
<path d="M635 2264 c-19 -15 -22 -21 -9 -15 18 9 52 41 43 41 -2 0 -17 -12
-34 -26z"/>
<path d="M2640 2286 c0 -2 8 -10 18 -17 15 -13 16 -12 3 4 -13 16 -21 21 -21
13z"/>
<path d="M2714 2232 c8 -13 66 -56 66 -49 0 3 -17 17 -37 33 -20 15 -33 23
-29 16z"/>
<path d="M585 2210 c-7 -11 32 -53 45 -48 5 2 -2 15 -15 30 -13 16 -27 24 -30
18z"/>
<path d="M3037 2143 c-4 -3 -7 -11 -7 -17 0 -6 5 -5 12 2 6 6 9 14 7 17 -3 3
-9 2 -12 -2z"/>
<path d="M656 2048 c-21 -30 -20 -56 5 -124 25 -66 54 -119 81 -150 25 -28
100 -50 124 -36 21 12 64 -4 64 -25 0 -7 -4 -13 -9 -13 -13 0 -5 -88 9 -106 8
-9 9 -14 2 -14 -6 0 -14 5 -17 10 -3 6 -14 10 -24 10 -10 0 -28 9 -41 20 -13
11 -26 20 -30 20 -15 0 -54 42 -57 60 -2 16 3 20 25 21 27 1 27 1 -5 10 -32 9
-77 54 -96 96 l-10 23 -19 -27 c-18 -28 -25 -69 -10 -60 4 3 8 -11 9 -30 l2
-35 -18 33 c-10 19 -21 46 -24 60 -9 37 -66 111 -79 103 -6 -4 -8 -3 -5 3 8
13 -40 59 -76 72 -37 14 -103 14 -130 0 -33 -17 -67 -51 -61 -60 3 -5 -6 -24
-20 -41 -13 -18 -32 -57 -41 -86 -20 -60 -32 -64 -16 -6 8 29 7 40 -2 47 -8 6
-6 7 6 3 9 -3 17 -1 17 5 0 6 10 25 22 42 25 35 33 74 11 56 -7 -6 -13 -8 -13
-4 0 4 -7 2 -15 -5 -8 -7 -15 -20 -15 -30 0 -10 -7 -23 -15 -30 -8 -7 -15 -20
-15 -30 0 -19 -17 -30 -37 -23 -7 3 -13 9 -13 14 0 6 6 7 13 3 8 -5 8 -2 -2 9
-7 9 -17 32 -21 50 l-8 32 -1 -37 c-1 -21 9 -56 21 -80 25 -47 30 -106 11
-126 -7 -7 -9 -20 -6 -29 4 -11 3 -14 -5 -9 -9 5 -9 0 -2 -19 13 -33 4 -51
-17 -34 -12 11 -13 8 -7 -16 5 -21 4 -26 -6 -20 -33 20 15 -38 53 -65 67 -46
74 -55 86 -109 6 -28 22 -69 36 -91 l25 -40 -45 0 c-51 0 -58 -14 -23 -48 26
-24 109 -46 118 -32 6 9 202 -16 310 -40 25 -5 65 -12 90 -15 25 -3 59 -10 75
-15 17 -4 53 -11 80 -15 28 -3 95 -15 150 -26 55 -11 127 -24 160 -30 33 -6
79 -15 103 -20 24 -5 64 -12 90 -15 25 -3 49 -7 53 -10 4 -2 35 -8 70 -14 35
-5 100 -16 144 -24 44 -8 96 -17 115 -20 19 -3 103 -16 185 -30 83 -14 166
-28 186 -30 20 -3 53 -12 73 -20 63 -26 265 -38 603 -34 l322 3 -1 -22 c-1
-12 -4 -20 -7 -18 -8 8 -31 -47 -24 -58 3 -5 2 -8 -3 -4 -5 3 -20 -11 -33 -30
-12 -19 -18 -32 -12 -28 17 10 13 1 -9 -25 -11 -13 -20 -29 -20 -37 0 -8 -4
-11 -10 -8 -9 6 -12 2 -14 -27 -1 -7 -9 -19 -18 -26 -10 -7 -15 -19 -11 -29 4
-10 2 -14 -4 -10 -7 4 -16 -7 -23 -28 -6 -19 -16 -35 -20 -35 -5 0 -7 -6 -4
-14 3 -7 -2 -16 -10 -19 -9 -4 -16 -13 -16 -22 0 -8 -4 -15 -10 -15 -5 0 -10
-9 -10 -19 0 -11 -5 -23 -11 -26 -5 -4 -14 -17 -20 -28 -8 -20 -28 -54 -84
-145 -13 -21 -32 -36 -55 -42 -53 -15 -1691 -13 -1741 1 -30 10 -41 19 -50 46
-6 18 -14 31 -19 28 -4 -3 -11 6 -14 20 -4 14 -11 25 -16 25 -5 0 -7 7 -4 15
4 8 -1 17 -10 21 -9 3 -16 12 -16 19 0 6 -9 22 -20 35 -11 12 -17 27 -14 31 3
5 -2 12 -10 15 -9 3 -14 10 -11 14 3 5 -1 15 -9 22 -7 8 -17 24 -20 36 -4 12
-12 22 -18 22 -6 0 -8 3 -5 7 4 3 -1 12 -11 20 -9 8 -11 11 -4 8 11 -6 11 -3
1 13 -7 12 -17 19 -21 16 -4 -3 -5 3 -1 12 4 12 3 15 -5 10 -8 -5 -10 -2 -6 8
3 9 2 16 -4 16 -6 0 -15 13 -21 30 -5 16 -15 30 -20 30 -6 0 -10 3 -9 8 4 11
-64 132 -73 132 -5 0 -8 3 -7 8 3 14 -14 42 -23 36 -5 -3 -6 1 -3 9 3 8 -1 21
-8 28 -7 8 -24 36 -37 62 -13 25 -28 44 -34 40 -6 -3 -7 -1 -3 5 9 15 -34 93
-47 85 -6 -3 -7 -1 -3 5 4 6 0 22 -8 35 -13 19 -22 22 -51 19 -38 -4 -43 -16
-20 -46 8 -10 12 -23 8 -29 -3 -6 -1 -7 5 -3 6 3 15 -8 22 -29 6 -19 16 -33
21 -30 5 4 9 -3 9 -13 0 -11 7 -25 15 -32 8 -7 13 -16 10 -20 -3 -5 1 -14 8
-22 7 -7 16 -21 20 -30 3 -10 11 -18 17 -18 5 0 10 -7 10 -15 0 -19 21 -58 38
-68 6 -4 12 -14 12 -21 0 -21 36 -87 43 -80 4 4 7 1 7 -8 0 -8 9 -25 20 -38
22 -26 26 -35 9 -25 -6 4 0 -9 12 -28 13 -19 28 -33 33 -30 5 4 6 1 2 -5 -8
-14 33 -94 44 -87 4 3 7 -3 6 -13 0 -9 5 -16 12 -14 8 1 11 -2 7 -8 -8 -13 35
-91 46 -84 5 3 6 -3 2 -12 -5 -13 -3 -15 7 -9 8 5 11 4 6 -3 -7 -12 31 -82 46
-82 5 0 6 -5 3 -10 -3 -6 -2 -10 2 -10 5 0 15 -15 21 -34 8 -21 33 -50 66 -75
l53 -41 880 0 c928 0 901 -1 949 45 28 26 99 129 83 120 -19 -12 1 17 22 33
11 7 16 19 12 29 -4 10 -2 14 5 9 6 -3 14 3 17 16 4 13 15 32 24 42 13 16 13
18 1 12 -10 -5 -9 -2 2 7 10 7 22 25 28 38 15 32 33 63 49 83 7 9 10 16 7 16
-4 0 0 7 8 16 9 8 16 22 16 30 0 8 4 14 8 14 11 0 43 56 35 64 -3 3 -2 6 3 6
12 0 56 74 49 84 -3 3 -2 4 2 1 3 -3 21 21 40 54 18 32 38 63 45 68 7 5 123
17 258 27 369 26 549 53 608 92 24 16 25 18 7 24 -26 9 114 53 175 55 41 1 47
4 62 35 24 47 23 66 -7 96 -36 36 -38 59 -20 183 9 61 13 117 8 123 -4 7 -6
26 -5 43 2 26 1 27 -7 9 -33 -76 -190 -125 -495 -154 -117 -11 -592 -7 -663 6
-25 5 -33 3 -33 -8 0 -10 9 -14 33 -11 32 4 32 4 -6 -11 -45 -17 -44 -15 -73
-63 -13 -21 -24 -32 -24 -25 0 15 19 55 31 62 12 8 -13 34 -51 51 -19 9 -75
24 -125 34 -128 25 -176 42 -207 77 -16 17 -28 27 -28 22 0 -5 -5 -2 -10 6 -8
12 -12 13 -19 2 -7 -11 -9 -11 -14 1 -4 10 3 17 25 21 16 3 42 15 58 26 15 11
43 21 62 21 54 3 -67 17 -151 18 l-74 1 -58 63 c-36 39 -81 76 -121 97 -55 30
-72 34 -143 34 -60 1 -89 -4 -114 -17 -23 -13 -36 -16 -44 -8 -18 18 91 61
170 67 118 9 118 9 137 86 6 25 3 27 -45 37 -92 20 -98 18 -127 -48 -17 -38
-34 -62 -47 -65 -11 -3 -45 -20 -75 -38 -38 -22 -67 -31 -95 -31 -22 1 -44 -2
-50 -5 -5 -4 -14 -7 -20 -8 -5 0 -15 -2 -22 -2 -6 -1 -14 -14 -16 -29 -2 -16
-5 -2 -6 30 -1 59 -14 76 -25 32 -4 -14 -11 -25 -16 -25 -5 0 -7 -7 -4 -15 4
-9 0 -15 -10 -15 -9 0 -16 -5 -16 -11 0 -6 -7 -8 -16 -5 -8 3 -12 2 -9 -4 3
-5 -6 -12 -20 -16 -14 -3 -25 -10 -25 -15 0 -5 -9 -9 -21 -9 -14 0 -18 4 -12
13 4 6 -5 4 -19 -5 -14 -10 -35 -15 -47 -13 -12 2 -25 -3 -31 -13 -5 -10 -10
-12 -10 -4 0 6 -5 12 -11 12 -5 0 -8 -4 -5 -9 3 -5 -6 -8 -19 -8 -14 0 -28 4
-31 9 -3 5 -12 1 -20 -9 -7 -10 -14 -13 -14 -6 0 8 -17 11 -49 10 -27 -1 -47
-5 -44 -9 2 -5 -1 -8 -6 -8 -6 0 -11 6 -11 14 0 14 -29 14 -64 0 -13 -5 -17
-4 -13 3 4 6 -4 11 -20 11 -15 0 -29 5 -31 11 -2 6 -10 11 -18 11 -9 0 -13 4
-10 9 3 4 -6 7 -19 5 -14 -1 -28 3 -32 9 -5 7 -17 12 -28 12 -13 0 -21 8 -23
22 -3 19 -8 21 -33 16 -17 -3 -29 -1 -29 5 0 13 -59 44 -70 37 -4 -3 -22 8
-39 24 -17 16 -31 25 -31 20 0 -33 49 -176 85 -248 24 -48 34 -75 23 -61 -25
29 -91 168 -109 228 -7 23 -16 42 -21 42 -5 0 -6 5 -3 10 3 6 2 10 -2 10 -5 0
-14 12 -21 28 -11 27 -11 27 -9 -10 2 -20 0 -35 -4 -32 -10 6 -27 81 -35 154
-4 36 -8 72 -9 80 -2 22 -83 60 -127 60 -27 0 -41 -6 -52 -22z m-248 -85 c-10
-2 -28 -2 -40 0 -13 2 -5 4 17 4 22 1 32 -1 23 -4z m-108 -38 c-7 -8 -17 -15
-22 -15 -6 0 -5 7 2 15 7 8 17 15 22 15 6 0 5 -7 -2 -15z m1723 -210 c-3 -9
-8 -14 -10 -11 -3 3 -2 9 2 15 9 16 15 13 8 -4z m29 -27 c-18 -19 -22 -20 -22
-6 0 9 8 21 17 27 27 15 29 3 5 -21z m163 -18 c-3 -5 -12 -10 -18 -10 -7 0 -6
4 3 10 19 12 23 12 15 0z m-1685 -74 c0 -2 -7 -6 -15 -10 -8 -3 -15 -1 -15 4
0 6 7 10 15 10 8 0 15 -2 15 -4z m405 -38 c13 -5 9 -6 -15 -2 -19 4 -42 10
-50 15 -18 11 34 1 65 -13z m-253 -31 c2 -18 1 -44 -3 -58 -8 -28 -10 -21 -13
44 -2 53 10 64 16 14z m1268 14 c0 -14 -18 -23 -31 -15 -8 4 -7 9 2 15 18 11
29 11 29 0z m760 -8 c9 -8 -24 -21 -67 -28 -38 -5 -47 -3 -64 16 -10 12 -19
24 -19 26 0 4 144 -9 150 -14z m-2430 -3 c0 -5 -7 -10 -15 -10 -8 0 -15 5 -15
10 0 6 7 10 15 10 8 0 15 -4 15 -10z m627 4 c-3 -3 -12 -4 -19 -1 -8 3 -5 6 6
6 11 1 17 -2 13 -5z m40 -43 c3 -11 21 -26 41 -35 21 -8 32 -15 26 -15 -6 -1
-28 6 -47 14 -25 10 -35 20 -31 30 4 8 2 15 -4 15 -6 0 -13 -6 -15 -12 -3 -8
-6 -6 -6 5 -1 23 30 22 36 -2z m1283 -56 c-5 -14 -6 -24 -2 -24 35 6 42 -10
12 -29 -16 -10 -24 -10 -40 0 -26 16 -25 27 3 55 29 29 39 29 27 -2z m-1043
-15 c41 4 49 3 41 -7 -7 -9 -23 -11 -49 -7 -22 4 -39 4 -39 1 0 -10 39 -28 71
-32 16 -2 52 -11 80 -20 28 -10 53 -15 55 -12 3 3 37 -3 75 -14 39 -11 74 -17
80 -14 5 4 9 1 9 -5 0 -7 6 -10 14 -7 8 3 59 -6 113 -19 54 -14 111 -26 127
-26 17 -1 41 -7 55 -15 14 -7 34 -13 43 -13 26 0 48 -11 42 -21 -3 -5 0 -9 7
-9 7 0 10 -2 7 -5 -5 -6 -454 75 -668 120 -63 13 -198 41 -300 62 -169 34
-181 38 -140 44 56 8 148 3 240 -15 80 -15 93 -5 23 18 -36 12 -40 14 -15 11
24 -3 31 -1 26 7 -4 7 6 3 22 -8 23 -16 39 -19 81 -14z m-891 -67 c-4 -4 -36
73 -35 85 0 4 9 -13 20 -37 11 -24 18 -46 15 -48z m979 47 c10 -11 16 -20 13
-20 -3 0 -13 9 -23 20 -10 11 -16 20 -13 20 3 0 13 -9 23 -20z m176 -39 c33
-7 37 -9 16 -10 -32 -1 -91 21 -102 39 -4 7 4 5 17 -4 14 -9 45 -20 69 -25z
m968 3 c-13 -14 -25 -20 -27 -14 -5 15 17 40 36 40 12 0 10 -6 -9 -26z m68 -9
c-27 -14 -36 2 -11 20 14 9 21 10 26 2 4 -6 -3 -16 -15 -22z m-882 -15 c10
-11 16 -20 13 -20 -3 0 -13 9 -23 20 -10 11 -16 20 -13 20 3 0 13 -9 23 -20z
m354 -77 c-4 -60 -10 -46 -14 29 -3 49 -2 57 6 39 5 -14 9 -44 8 -68z m-1614
57 c-3 -5 -10 -10 -16 -10 -5 0 -9 5 -9 10 0 6 7 10 16 10 8 0 12 -4 9 -10z
m1868 -25 c8 -20 -13 -55 -32 -55 -20 0 -24 18 -15 67 4 20 7 21 24 11 11 -7
21 -17 23 -23z m-460 8 c-7 -2 -19 -2 -25 0 -7 3 -2 5 12 5 14 0 19 -2 13 -5z
m-872 -61 c-45 -3 -57 0 -47 16 4 6 22 6 48 -2 l43 -11 -44 -3z m1359 18 c0
-5 -5 -10 -11 -10 -5 0 -7 5 -4 10 3 6 8 10 11 10 2 0 4 -4 4 -10z m110 0 c12
-8 11 -10 -7 -10 -13 0 -23 5 -23 10 0 13 11 13 30 0z m1250 0 c0 -5 -10 -10
-22 -10 -19 0 -20 2 -8 10 19 13 30 13 30 0z m64 -9 c8 -13 -4 -41 -18 -41 -6
0 -22 -14 -35 -30 -13 -17 -30 -30 -38 -30 -8 0 -11 -5 -7 -12 5 -8 2 -9 -9
-5 -12 4 -24 -3 -39 -24 -12 -16 -27 -28 -34 -25 -6 2 -11 -3 -10 -12 1 -11
-5 -16 -16 -14 -9 1 -18 -5 -20 -15 -4 -21 28 -36 147 -65 44 -11 94 -24 110
-28 45 -12 -210 -12 -403 0 -103 6 -174 15 -195 25 -21 10 -23 12 -7 8 14 -4
32 -6 40 -5 8 1 62 5 120 9 73 6 112 13 129 25 13 9 47 52 75 94 41 62 61 83
99 102 27 13 51 30 54 38 6 15 49 19 57 5z m-459 -21 l20 -9 -20 0 c-11 0 -38
4 -60 8 l-40 9 40 0 c22 0 49 -3 60 -8z m-1240 -30 c3 -5 2 -10 -4 -10 -5 0
-13 5 -16 10 -3 6 -2 10 4 10 5 0 13 -4 16 -10z m345 1 c0 -5 -7 -11 -15 -15
-15 -5 -20 5 -8 17 9 10 23 9 23 -2z m-92 -24 c4 -12 -10 -57 -18 -57 -10 0
-20 25 -20 49 0 17 32 24 38 8z m-109 -69 c15 -25 18 -39 11 -43 -15 -10 -19
-4 -36 51 -15 52 -10 50 25 -8z m1606 6 c-16 -13 -34 -24 -40 -24 -5 0 6 14
25 29 19 16 37 27 40 24 3 -2 -8 -16 -25 -29z m-165 2 c0 -2 -8 -10 -17 -17
-16 -13 -17 -12 -4 4 13 16 21 21 21 13z m765 -45 c-16 -15 -17 -15 -6 7 7 12
9 22 6 22 -4 0 -3 6 2 13 5 9 9 7 11 -7 2 -10 -4 -26 -13 -35z m-15 24 c0 -19
-28 -33 -81 -40 l-44 -6 49 20 c27 11 54 25 60 31 13 13 16 13 16 -5z m-2040
-15 c0 -5 -4 -10 -10 -10 -5 0 -10 5 -10 10 0 6 5 10 10 10 6 0 10 -4 10 -10z
m1400 -20 c-6 -11 -13 -20 -16 -20 -2 0 0 9 6 20 6 11 13 20 16 20 2 0 0 -9
-6 -20z m-696 -29 l31 -9 -36 -1 c-44 -1 -149 19 -149 29 0 8 106 -5 154 -19z
m-790 -28 c22 -21 52 -46 66 -56 21 -15 19 -14 -15 2 -38 18 -118 91 -101 91
5 0 27 -17 50 -37z m61 -3 c21 -16 34 -30 28 -30 -10 0 -81 59 -72 60 3 0 23
-13 44 -30z m1441 -1 c6 -10 -2 -11 -33 -3 -13 4 -23 10 -23 14 0 10 49 0 56
-11z m-901 -17 c-3 -3 -11 0 -18 7 -9 10 -8 11 6 5 10 -3 15 -9 12 -12z m350
-42 c26 -7 24 -8 -20 -9 -27 0 -57 4 -65 9 -18 12 39 12 85 0z"/>
<path d="M3590 2030 c0 -5 5 -10 11 -10 5 0 7 5 4 10 -3 6 -8 10 -11 10 -2 0
-4 -4 -4 -10z"/>
<path d="M190 2015 c0 -7 -8 -18 -17 -24 -15 -8 -16 -12 -5 -22 10 -11 16 -9
34 8 12 13 18 28 15 37 -8 20 -27 21 -27 1z"/>
<path d="M113 1945 c-3 -9 -3 -18 -1 -21 3 -3 8 4 11 16 6 23 -1 27 -10 5z"/>
<path d="M2398 1933 c6 -2 18 -2 25 0 6 3 1 5 -13 5 -14 0 -19 -2 -12 -5z"/>
<path d="M3515 1930 c3 -5 11 -10 17 -10 5 0 48 -19 94 -42 53 -26 88 -38 94
-32 12 12 -148 94 -184 94 -16 0 -25 -4 -21 -10z"/>
<path d="M3860 1929 c0 -26 47 -84 108 -135 36 -29 68 -52 71 -49 2 3 -4 12
-15 20 -17 13 -18 14 -1 15 11 0 20 -10 23 -27 4 -20 24 -40 67 -70 60 -41 85
-49 54 -19 -9 9 -29 40 -46 68 -16 29 -58 78 -92 108 -72 64 -98 80 -116 73
-7 -3 -13 2 -13 11 0 9 -8 16 -20 16 -11 0 -20 -5 -20 -11z m98 -63 c23 -46 7
-52 -16 -7 -14 27 -18 41 -10 39 7 -3 19 -17 26 -32z"/>
<path d="M972 1911 c-17 -10 64 -34 99 -29 23 3 23 4 4 14 -29 16 -88 25 -103
15z"/>
<path d="M868 1904 c-3 -5 -2 -18 2 -28 3 -11 9 -15 12 -10 3 5 2 18 -2 28 -3
11 -9 15 -12 10z"/>
<path d="M950 1874 c2 -42 88 -73 142 -51 l33 14 -70 16 c-38 8 -78 19 -87 22
-10 4 -18 3 -18 -1z"/>
<path d="M2840 1872 c-34 -6 193 -80 275 -88 85 -9 63 8 -71 57 -101 37 -144
43 -204 31z"/>
<path d="M2747 1822 c-20 -21 -22 -83 -6 -115 17 -32 53 -75 46 -54 -4 10 -2
17 5 17 9 0 9 3 0 12 -7 7 -12 23 -12 38 1 23 2 24 14 7 8 -10 20 -15 30 -11
9 3 16 1 16 -5 0 -6 -7 -11 -15 -11 -8 0 -15 -4 -15 -10 0 -5 13 -10 29 -10
17 0 32 -4 35 -9 9 -14 46 -20 43 -8 -1 6 8 12 20 13 12 1 20 -2 18 -7 -3 -4
3 -10 14 -14 10 -3 22 -16 25 -29 3 -13 9 -31 12 -40 4 -12 2 -15 -9 -10 -8 3
-17 14 -20 25 -3 10 -12 19 -20 19 -14 0 -14 -3 -1 -30 9 -17 23 -30 34 -30
10 0 30 -6 44 -14 36 -18 10 -28 -39 -15 -63 18 -63 3 0 -21 68 -27 163 -32
189 -11 16 14 21 47 10 74 -3 9 -37 43 -75 77 l-70 62 29 -43 c27 -42 39 -89
23 -89 -5 0 -11 13 -14 29 -14 67 -177 201 -245 201 -13 0 -21 4 -18 9 7 10
-16 21 -43 21 -10 0 -25 -8 -34 -18z m115 -84 c-11 -11 -52 6 -52 21 0 17 14
19 37 4 15 -10 21 -19 15 -25z m35 36 c-3 -3 -12 -4 -19 -1 -8 3 -5 6 6 6 11
1 17 -2 13 -5z m-12 -82 c-1 -1 -10 0 -19 4 -13 5 -14 9 -4 21 10 13 13 13 19
-4 3 -10 5 -19 4 -21z m122 -28 c-3 -3 -12 -4 -19 -1 -8 3 -5 6 6 6 11 1 17
-2 13 -5z"/>
<path d="M4049 1613 c-13 -16 -12 -17 4 -4 16 13 21 21 13 21 -2 0 -10 -8 -17
-17z"/>
<path d="M4210 1620 c0 -5 5 -10 11 -10 5 0 7 5 4 10 -3 6 -8 10 -11 10 -2 0
-4 -4 -4 -10z"/>
<path d="M4063 1598 c-52 -31 -206 -59 -368 -66 -146 -8 -149 -8 -105 -21 82
-24 410 7 505 49 45 19 48 22 30 32 -11 6 -22 14 -25 18 -3 4 -19 -2 -37 -12z"/>
<path d="M4110 1549 c-19 -10 -28 -18 -20 -18 8 -1 29 8 45 19 37 25 22 24
-25 -1z"/>
<path d="M4048 1523 c7 -3 16 -2 19 1 4 3 -2 6 -13 5 -11 0 -14 -3 -6 -6z"/>
<path d="M4008 1513 c7 -3 16 -2 19 1 4 3 -2 6 -13 5 -11 0 -14 -3 -6 -6z"/>
<path d="M3216 1482 c-3 -6 -1 -14 5 -17 15 -10 25 3 12 16 -7 7 -13 7 -17 1z"/>
</g>
</svg>
